<?xml version="1.0" standalone="no"?><!DOCTYPE svg PUBLIC "-//W3C//DTD SVG 1.1//EN" "http://www.w3.org/Graphics/SVG/1.1/DTD/svg11.dtd"><svg t="1768492507679" class="icon" viewBox="0 0 1024 1024" version="1.1" xmlns="http://www.w3.org/2000/svg" p-id="9906" xmlns:xlink="http://www.w3.org/1999/xlink" width="64" height="64"><path d="M1020.416 316.928c-18.944-91.136-95.744-154.112-191.488-154.112-7.168 0-16.384 2.56-25.6 2.56-72.192 9.216-139.776 72.704-154.112 140.288-2.56 13.824 9.216 37.376 20.992 44.544 4.608 2.56 11.776 4.608 16.384 4.608 11.776 0 23.552-9.216 30.208-25.6 2.56-4.608 2.56-7.168 4.608-11.776 0-4.608 2.56-9.216 4.608-13.824 18.432-41.984 60.416-67.584 107.52-68.096 16.384 0 30.208 4.608 44.544 9.216 58.368 23.04 89.088 88.576 70.144 146.944C931.84 445.44 885.248 476.16 820.224 476.16l-775.68 1.024c-7.168 0-16.384 0-23.552 4.608-9.216 7.168-20.992 23.552-20.992 34.816 0 13.824 16.384 25.6 25.6 30.208 7.168 2.56 11.776 2.56 16.384 2.56 4.608 0 7.168 0 7.168-4.608l763.904-1.024c20.992 0 41.984 0 62.976-4.608 102.912-23.552 163.328-119.296 144.384-222.208z m-363.52 344.064l-611.84 1.024c-7.168 0-13.824 0-20.992 4.608-9.216 7.168-20.992 20.992-20.992 32.768 0 11.776 13.824 25.6 23.552 30.208 7.168 4.608 13.824 4.608 18.432 4.608l560.64-1.024c23.552 0 53.76 0 81.92 2.048 25.6 2.048 49.152 16.384 62.976 37.376 16.384 20.992 20.992 46.592 14.336 72.192-11.776 39.936-37.376 62.976-74.752 68.096h-16.384c-32.768 0-58.368-16.384-77.312-46.592-7.168-13.824-18.944-28.16-35.328-28.16-7.168 0-13.824 2.56-20.992 7.168-30.208 18.944-13.824 46.592-7.168 58.368 28.16 51.2 83.968 81.408 142.336 81.408 20.992 0 39.936-2.56 58.368-7.168 72.192-25.6 116.736-102.912 102.4-180.224-15.872-85.504-81.408-137.216-179.2-136.704z m0 0" p-id="9907"></path><path d="M46.592 365.056l198.656-0.512c16.384 0 91.136 0 109.568-2.56h74.752c86.528-2.56 156.16-70.144 158.72-159.232 2.048-86.528-63.488-161.28-152.064-167.936h-11.776c-62.976 0-123.904 39.936-144.896 93.696-4.608 11.776 0 37.376 11.776 46.592 4.608 7.168 11.776 9.216 18.944 9.216 9.216 0 20.992-7.168 30.208-18.944 2.56-2.56 4.608-7.168 7.168-9.216 2.56-2.56 4.608-7.168 7.168-9.216 16.384-23.552 44.544-37.376 72.192-37.376 7.168 0 13.824 0 20.992 2.56 46.592 13.824 72.704 53.76 68.096 100.352C508.928 259.072 472.064 291.84 424.96 291.84l-371.2 0.512c-20.992 0-53.76 0-53.76 37.376 0 9.216 2.56 18.432 9.216 25.6 9.728 9.728 23.552 9.728 37.376 9.728z m0 0" p-id="9908"></path></svg>